<?xml version="1.0" encoding="UTF-8" standalone="no"?>
<!-- Created with Inkscape (http://www.inkscape.org/) -->

<svg
   xmlns:dc="http://purl.org/dc/elements/1.1/"
   xmlns:cc="http://creativecommons.org/ns#"
   xmlns:rdf="http://www.w3.org/1999/02/22-rdf-syntax-ns#"
   xmlns:svg="http://www.w3.org/2000/svg"
   xmlns="http://www.w3.org/2000/svg"
   xmlns:sodipodi="http://sodipodi.sourceforge.net/DTD/sodipodi-0.dtd"
   xmlns:inkscape="http://www.inkscape.org/namespaces/inkscape"
   width="210mm"
   height="297mm"
   viewBox="0 0 744.09448819 1052.3622047"
   id="svg2"
   version="1.1"
   inkscape:version="0.91 r13725"
   sodipodi:docname="es16_red.svg">
  <defs
     id="defs4" />
  <sodipodi:namedview
     id="base"
     pagecolor="#ffffff"
     bordercolor="#666666"
     borderopacity="1.0"
     inkscape:pageopacity="0.0"
     inkscape:pageshadow="2"
     inkscape:zoom="0.98994949"
     inkscape:cx="227.70397"
     inkscape:cy="566.8285"
     inkscape:document-units="px"
     inkscape:current-layer="layer1"
     showgrid="false"
     inkscape:window-width="1871"
     inkscape:window-height="1056"
     inkscape:window-x="49"
     inkscape:window-y="24"
     inkscape:window-maximized="1" />
  <metadata
     id="metadata7">
    <rdf:RDF>
      <cc:Work
         rdf:about="">
        <dc:format>image/svg+xml</dc:format>
        <dc:type
           rdf:resource="http://purl.org/dc/dcmitype/StillImage" />
        <dc:title></dc:title>
      </cc:Work>
    </rdf:RDF>
  </metadata>
  <g
     inkscape:label="Capa 1"
     inkscape:groupmode="layer"
     id="layer1">
    <path
       sodipodi:type="star"
       style="fill:#ff0000;fill-opacity:1;stroke:none;stroke-width:10;stroke-linecap:round;stroke-linejoin:round;stroke-miterlimit:4;stroke-dasharray:none;stroke-dashoffset:0;stroke-opacity:1"
       id="path4140"
       sodipodi:sides="18"
       sodipodi:cx="346.48233"
       sodipodi:cy="460.41281"
       sodipodi:r1="121.72653"
       sodipodi:r2="60.863262"
       sodipodi:arg1="0"
       sodipodi:arg2="0.17453293"
       inkscape:flatsided="false"
       inkscape:rounded="0"
       inkscape:randomized="0"
       d="m 468.20886,460.41281 -61.78792,10.5688 54.44691,31.06413 -61.67639,-11.2013 40.5388,47.81268 -54.12578,-31.62034 21.74112,58.7943 -40.04681,-48.22551 0.32113,62.68447 -21.13759,-59.01397 -21.13759,59.01397 0.32113,-62.68447 -40.04681,48.22551 21.74112,-58.79431 -54.12578,31.62035 40.5388,-47.81268 -61.67639,11.2013 54.44691,-31.06413 -61.78792,-10.5688 61.78792,-10.56879 -54.44691,-31.06413 61.67639,11.20129 -40.5388,-47.81268 54.12578,31.62035 -21.74112,-58.79431 40.04681,48.22551 -0.32113,-62.68447 21.13759,59.01397 21.13759,-59.01397 -0.32113,62.68447 40.04681,-48.22551 -21.74112,58.79431 54.12578,-31.62035 -40.5388,47.81268 61.67639,-11.20129 -54.44691,31.06413 z" />
  </g>
</svg>
