<?xml version="1.0" encoding="UTF-8" standalone="no"?>
<!-- Created with Inkscape (http://www.inkscape.org/) -->

<svg
   xmlns:dc="http://purl.org/dc/elements/1.1/"
   xmlns:cc="http://creativecommons.org/ns#"
   xmlns:rdf="http://www.w3.org/1999/02/22-rdf-syntax-ns#"
   xmlns:svg="http://www.w3.org/2000/svg"
   xmlns="http://www.w3.org/2000/svg"
   xmlns:sodipodi="http://sodipodi.sourceforge.net/DTD/sodipodi-0.dtd"
   xmlns:inkscape="http://www.inkscape.org/namespaces/inkscape"
   width="210mm"
   height="297mm"
   viewBox="0 0 744.09448819 1052.3622047"
   id="svg2"
   version="1.1"
   inkscape:version="0.91 r13725"
   sodipodi:docname="es16_2_red.svg">
  <defs
     id="defs4" />
  <sodipodi:namedview
     id="base"
     pagecolor="#ffffff"
     bordercolor="#666666"
     borderopacity="1.0"
     inkscape:pageopacity="0.0"
     inkscape:pageshadow="2"
     inkscape:zoom="0.98994949"
     inkscape:cx="227.70397"
     inkscape:cy="566.8285"
     inkscape:document-units="px"
     inkscape:current-layer="layer1"
     showgrid="false"
     inkscape:window-width="1871"
     inkscape:window-height="1056"
     inkscape:window-x="49"
     inkscape:window-y="24"
     inkscape:window-maximized="1" />
  <metadata
     id="metadata7">
    <rdf:RDF>
      <cc:Work
         rdf:about="">
        <dc:format>image/svg+xml</dc:format>
        <dc:type
           rdf:resource="http://purl.org/dc/dcmitype/StillImage" />
        <dc:title></dc:title>
      </cc:Work>
    </rdf:RDF>
  </metadata>
  <g
     inkscape:label="Capa 1"
     inkscape:groupmode="layer"
     id="layer1">
    <path
       sodipodi:type="star"
       style="fill:#ff0000;fill-opacity:1;stroke:none;stroke-width:10;stroke-linecap:round;stroke-linejoin:round;stroke-miterlimit:4;stroke-dasharray:none;stroke-dashoffset:0;stroke-opacity:1"
       id="path4140"
       sodipodi:sides="18"
       sodipodi:cx="346.48233"
       sodipodi:cy="460.41281"
       sodipodi:r1="121.72653"
       sodipodi:r2="43.612029"
       sodipodi:arg1="0"
       sodipodi:arg2="0.19728957"
       inkscape:flatsided="false"
       inkscape:rounded="0"
       inkscape:randomized="0"
       d="m 468.20886,460.41281 -78.96051,8.54849 71.6195,33.08444 -77.12236,-18.97314 55.98477,55.58452 -65.98212,-44.20632 33.59746,71.38028 -46.88347,-64.10756 7.15779,78.56652 -22.12997,-76.27649 -20.14521,76.27649 5.29273,-79.24535 -45.01841,64.78639 32.07705,-72.65605 -64.46171,45.48209 54.99239,-57.30336 -76.12998,20.69198 71.27485,-35.03904 -78.61586,-6.59389 78.96051,-8.54849 -71.6195,-33.08443 77.12236,18.97313 -55.98477,-55.58452 65.98212,44.20632 -33.59746,-71.38028 46.88347,64.10757 -7.15779,-78.56653 22.12997,76.27649 20.14521,-76.27649 -5.29273,79.24535 45.01841,-64.78639 -32.07705,72.65606 64.46171,-45.4821 -54.99239,57.30337 76.12998,-20.69198 -71.27485,35.03903 z" />
  </g>
</svg>
